HIERARCHY
ROOT Hips
{
	OFFSET 0.00000 0.00000 0.00000
	CHANNELS 6 Xposition Yposition Zposition Zrotation Yrotation Xrotation 
	JOINT LHipJoint
	{
		OFFSET 0 0 0
		CHANNELS 3 Zrotation Yrotation Xrotation
		JOINT LeftUpLeg
		{
			OFFSET 3.13874 -1.57224 1.49786
			CHANNELS 3 Zrotation Yrotation Xrotation
			JOINT LeftLeg
			{
				OFFSET 2.10955 -5.79594 0.00000
				CHANNELS 3 Zrotation Yrotation Xrotation
				JOINT LeftFoot
				{
					OFFSET 2.41843 -6.64458 0.00000
					CHANNELS 3 Zrotation Yrotation Xrotation
					JOINT LeftToeBase
					{
						OFFSET 0.04713 -0.12948 1.66229
						CHANNELS 3 Zrotation Yrotation Xrotation
						End Site
						{
							OFFSET 0.00000 -0.00000 0.85167
						}
					}
				}
			}
		}
	}
	JOINT RHipJoint
	{
		OFFSET 0 0 0
		CHANNELS 3 Zrotation Yrotation Xrotation
		JOINT RightUpLeg
		{
			OFFSET -3.13988 -1.57224 1.49786
			CHANNELS 3 Zrotation Yrotation Xrotation
			JOINT RightLeg
			{
				OFFSET -2.15006 -5.90725 0.00000
				CHANNELS 3 Zrotation Yrotation Xrotation
				JOINT RightFoot
				{
					OFFSET -2.34496 -6.44273 0.00000
					CHANNELS 3 Zrotation Yrotation Xrotation
					JOINT RightToeBase
					{
						OFFSET -0.08699 -0.23900 1.55223
						CHANNELS 3 Zrotation Yrotation Xrotation
						End Site
						{
							OFFSET -0.00000 -0.00000 0.80281
						}
					}
				}
			}
		}
	}
	JOINT LowerBack
	{
		OFFSET 0 0 0
		CHANNELS 3 Zrotation Yrotation Xrotation
		JOINT Spine
		{
			OFFSET 0.01292 1.96517 -0.16495
			CHANNELS 3 Zrotation Yrotation Xrotation
			JOINT Spine1
			{
				OFFSET 0.02122 1.88666 0.19706
				CHANNELS 3 Zrotation Yrotation Xrotation
				JOINT Neck
				{
					OFFSET 0 0 0
					CHANNELS 3 Zrotation Yrotation Xrotation
					JOINT Neck1
					{
						OFFSET -0.01683 1.81591 0.07903
						CHANNELS 3 Zrotation Yrotation Xrotation
						JOINT Head
						{
							OFFSET 0.00815 1.74013 -0.47700
							CHANNELS 3 Zrotation Yrotation Xrotation
							End Site
							{
								OFFSET -0.00204 1.83225 -0.16933
							}
						}
					}
				}
				JOINT LeftShoulder
				{
					OFFSET 0 0 0
					CHANNELS 3 Zrotation Yrotation Xrotation
					JOINT LeftArm
					{
						OFFSET 3.38482 1.41533 0.19802
						CHANNELS 3 Zrotation Yrotation Xrotation
						JOINT LeftForeArm
						{
							OFFSET 4.32712 -0.00000 0.00000
							CHANNELS 3 Zrotation Yrotation Xrotation
							JOINT LeftHand
							{
								OFFSET 3.28587 -0.00000 -0.00000
								CHANNELS 3 Zrotation Yrotation Xrotation
								JOINT LeftFingerBase
								{
									OFFSET 0 0 0
									CHANNELS 3 Zrotation Yrotation Xrotation
									JOINT LeftHandIndex1
									{
										OFFSET 0.43316 -0.00000 -0.00000
										CHANNELS 3 Zrotation Yrotation Xrotation
										End Site
										{
											OFFSET 0.34922 -0.00000 -0.00000
										}
									}
								}
								JOINT LThumb
								{
									OFFSET 0 0 0
									CHANNELS 3 Zrotation Yrotation Xrotation
									End Site
									{
										OFFSET 0.35456 -0.00000 0.35456
									}
								}
							}
						}
					}
				}
				JOINT RightShoulder
				{
					OFFSET 0 0 0
					CHANNELS 3 Zrotation Yrotation Xrotation
					JOINT RightArm
					{
						OFFSET -3.09725 1.62858 -0.14144
						CHANNELS 3 Zrotation Yrotation Xrotation
						JOINT RightForeArm
						{
							OFFSET -4.29104 -0.00000 0.00000
							CHANNELS 3 Zrotation Yrotation Xrotation
							JOINT RightHand
							{
								OFFSET -3.22720 -0.00000 -0.00000
								CHANNELS 3 Zrotation Yrotation Xrotation
								JOINT RightFingerBase
								{
									OFFSET 0 0 0
									CHANNELS 3 Zrotation Yrotation Xrotation
									JOINT RightHandIndex1
									{
										OFFSET -0.54362 -0.00000 -0.00000
										CHANNELS 3 Zrotation Yrotation Xrotation
										End Site
										{
											OFFSET -0.43828 -0.00000 -0.00000
										}
									}
								}
								JOINT RThumb
								{
									OFFSET 0 0 0
									CHANNELS 3 Zrotation Yrotation Xrotation
									End Site
									{
										OFFSET -0.44497 -0.00000 0.44497
									}
								}
							}
						}
					}
				}
			}
		}
	}
}
MOTION
Frames: 10
Frame Time: 0.0416667
0.00 0.00 0.00 -106.0660 82.6235 -93.0693 0.0000 0.0000 0.0000 -22.2041 -22.3027 10.4294 0.2300 3.0865 8.5197 1.8289 -1.4070 -25.1841 0.0464 -1.3904 -3.8237 0.0000 0.0000 0.0000 20.7131 28.0270 -85.6534 -19.2526 -19.9866 87.8143 -1.5903 -16.8266 -34.8944 -0.4188 4.1539 -11.5101 0.3799 -1.0461 27.6428 8.0118 0.6745 -5.4536 8.8156 1.1005 -21.9225 0.7238 -2.1574 -19.1039 -5.1772 0.3336 41.3539 -2.3879 0.0321 19.0282 -0.0000 0.0000 0.0000 -64.1610 -30.4310 38.5604 74.5023 -59.0727 -46.6204 -0.0000 -0.0000 0.7416 36.0229 21.4013 14.8603 -7.1250 0.0000 -0.0000 8.0395 55.6536 2.1117 -0.0000 0.0000 0.0000 31.7695 -6.5802 28.0653 -23.2882 34.4025 -7.3005 0.0000 -0.0000 -13.3849 -25.6147 -17.4571 8.1845 7.1250 -0.0000 -0.0000 2.3085 -49.1921 -0.2388
0.00 0.00 0.00 -154.1370 82.8499 -129.8520 0.0000 0.0000 0.0000 -18.4654 -30.0717 -1.3243 0.0280 1.0809 2.9715 3.6538 7.6595 -39.2970 1.1517 -6.8138 -19.1650 0.0000 0.0000 0.0000 18.5356 26.8637 -78.2118 -12.8980 -18.7450 68.8083 -1.7320 -4.6538 -26.8953 -0.5684 4.8286 -13.4204 1.8987 -2.3308 24.5333 7.7694 -0.6934 -6.6525 8.2093 0.3184 -21.4920 1.0242 -1.4846 -21.4630 -5.9065 1.4556 40.7082 -2.5905 0.3375 19.3742 0.0000 -0.0000 0.0000 -59.1466 -29.4633 31.7057 88.6878 -59.9935 -58.8636 -0.0000 0.0000 -0.7200 38.5111 18.0452 13.8472 -7.1250 0.0000 -0.0000 10.8773 52.2606 1.9631 0.0000 -0.0000 0.0000 25.6027 -7.7023 28.2282 -26.8317 38.0182 -9.3953 0.0000 -0.0000 -16.6609 -27.8332 -17.4735 9.0083 7.1250 -0.0000 -0.0000 0.1254 -49.5740 -0.0141
0.00 0.00 0.00 -164.2590 81.1249 -136.6920 0.0000 0.0000 0.0000 -16.0997 -19.0992 -21.6609 1.7029 8.2176 23.3771 0.6555 11.9342 -23.8944 1.8756 -8.6020 -24.5580 0.0000 0.0000 0.0000 20.0186 27.1521 -70.7880 -9.6656 -17.2175 58.3649 -1.8925 -5.6691 -28.5271 -0.4531 4.3185 -11.9745 4.5380 -2.7110 22.2513 7.2453 -0.6522 -6.6272 5.9272 -0.1085 -20.1030 0.8906 -1.7778 -20.8347 -5.4783 0.9704 40.9024 -2.4514 0.2179 19.2767 -0.0000 0.0000 0.0000 -63.4791 -22.6162 33.6459 75.5939 -59.2011 -47.5574 -0.0000 -0.0000 1.8781 39.7782 21.5357 16.9933 -7.1250 0.0000 -0.0000 12.4308 56.7254 3.6111 -0.0000 0.0000 0.0000 30.6113 -10.1303 26.0313 -29.6010 40.5489 -11.1493 0.0000 -0.0000 -13.9683 -27.1862 -17.7479 8.8985 7.1250 -0.0000 -0.0000 0.8151 -49.7673 -0.0958
0.00 0.00 0.00 -158.1030 80.0290 -130.6490 0.0000 0.0000 0.0000 -14.7319 -14.2383 -33.0890 5.8133 14.2449 44.2277 0.8817 6.4536 -21.2116 2.3797 -9.6158 -27.7413 0.0000 0.0000 0.0000 25.1406 25.9521 -62.6491 -7.5709 -15.7944 51.0018 -1.7968 -4.8586 -27.4509 -0.4854 4.4675 -12.3959 7.2002 -2.6265 21.2432 7.0439 0.1061 -6.2649 3.8324 -0.1284 -19.0713 0.8240 -1.9773 -20.4193 -5.1290 0.6868 41.4805 -2.3371 0.1896 19.5025 -0.0000 -0.0000 0.0000 -67.9536 -13.1238 34.6695 62.8115 -57.0137 -36.6901 -0.0000 -0.0000 6.4666 39.0246 24.9259 18.8591 -7.1250 0.0000 -0.0000 11.4871 60.5017 4.3756 -0.0000 -0.0000 0.0000 37.0381 -12.7019 24.1603 -33.1655 43.4568 -13.5357 0.0000 -0.0000 -12.3630 -25.3028 -16.3215 7.5679 7.1250 -0.0000 -0.0000 2.3936 -47.9126 -0.1721
0.00 0.00 0.00 -154.1520 79.9624 -127.8120 0.0000 0.0000 0.0000 -14.2446 -12.1502 -44.0472 12.1050 18.4347 66.3213 1.3366 -2.0249 -21.2877 2.4980 -9.8343 -28.4418 0.0000 0.0000 0.0000 30.1387 21.6335 -55.5406 -5.9735 -14.4026 44.8753 -1.5635 -2.5062 -24.6385 -0.3388 3.7402 -10.3469 8.3354 -2.1880 20.7324 6.6533 0.8774 -6.1481 2.4533 0.0454 -18.5925 1.3723 -2.2612 -19.8575 -5.2579 0.2763 42.3492 -2.6035 0.1712 19.8725 0.0000 -0.0000 0.0000 -71.0764 -0.8105 33.1073 54.5917 -54.6875 -29.8825 -0.0000 -0.0000 10.3978 38.4331 25.5393 18.8866 -7.1250 0.0000 -0.0000 10.6832 61.0469 4.2037 0.0000 -0.0000 0.0000 42.4403 -14.4047 24.2534 -34.7772 44.6524 -14.6566 0.0000 -0.0000 -11.6263 -24.6479 -15.3204 6.9125 7.1250 -0.0000 -0.0000 2.8377 -46.7336 -0.1215
0.00 0.00 0.00 -155.2950 80.8101 -135.5980 0.0000 0.0000 0.0000 -11.8997 -17.0387 -63.3647 16.4982 19.7034 79.7127 0.8489 -12.8449 -17.5358 3.2074 -11.0234 -32.3588 0.0000 0.0000 0.0000 37.4668 3.8238 -36.6058 -2.2398 -9.3488 26.8925 -1.0213 0.9626 -18.8050 -0.6178 5.0303 -13.9949 8.8846 -0.1519 20.7337 5.9327 3.5101 -4.8761 0.6648 1.1837 -17.4970 -0.6426 -5.2378 -16.5376 -4.2801 -3.2767 44.8817 -2.4561 -1.1121 20.4678 0.0000 0.0000 0.0000 -71.5092 21.9457 19.7993 29.1094 -40.1177 -10.8311 -0.0000 -0.0000 10.7991 36.3907 23.2630 16.2295 -7.1250 0.0000 -0.0000 8.3160 57.8907 2.6357 0.0000 0.0000 0.0000 48.1518 -12.7702 23.2345 -32.4143 42.8750 -13.0218 0.0000 -0.0000 -13.1836 -22.6253 -20.3417 8.2436 7.1250 -0.0000 -0.0000 5.9844 -51.7659 -1.0000
0.00 0.00 0.00 -163.7860 82.7148 -150.1280 0.0000 0.0000 0.0000 -25.1130 -11.9486 -44.7435 1.8084 8.4551 24.1051 1.9591 2.2555 -27.3396 0.7271 -5.4483 -15.1917 0.0000 0.0000 0.0000 36.9626 7.5922 -15.5066 -0.9963 -6.3522 17.8097 -1.6981 -5.7241 -27.2380 -0.5836 4.8915 -13.5994 8.2520 1.0134 16.8338 4.9073 4.1758 -5.0285 -0.3237 1.5324 -15.1325 -2.5131 -7.2917 -11.5300 -2.9337 -5.6086 47.9006 -1.7522 -1.7962 21.2553 0.0000 0.0000 0.0000 -62.6155 34.0087 6.7488 18.3610 -28.6169 -4.7209 -0.0000 -0.0000 12.4160 34.3585 25.0488 16.1431 -7.1250 0.0000 -0.0000 5.6194 59.4070 1.9811 0.0000 0.0000 0.0000 53.7702 -13.5835 27.1164 -42.0881 49.2595 -20.0072 0.0000 -0.0000 -13.0014 -25.6920 -14.7430 6.9801 7.1250 -0.0000 -0.0000 1.7551 -46.2509 -0.0542
0.00 0.00 0.00 -127.1330 82.5006 -113.3220 0.0000 0.0000 0.0000 -18.3345 -11.9781 -36.0963 0.5989 4.9542 13.7779 5.0063 2.2211 -43.2649 0.6543 -5.1739 -14.4052 0.0000 0.0000 0.0000 42.5634 11.4250 -18.2837 -3.0226 -10.7316 31.3800 -2.8080 1.1232 -31.4530 -0.4379 4.2461 -11.7700 7.3522 0.8328 13.9961 6.5083 3.7912 -5.7803 2.1651 1.6139 -14.4975 -1.4108 -6.0719 -12.1174 -3.8397 -3.5022 48.9564 -2.0851 -0.8506 22.4923 0.0000 -0.0000 0.0000 -64.9635 35.9139 1.7374 17.1890 -27.1063 -4.1731 -0.0000 -0.0000 12.1700 36.9947 24.6042 17.4156 -7.1250 0.0000 -0.0000 8.9249 59.5855 3.1940 0.0000 -0.0000 0.0000 51.3214 -17.8140 31.2432 -45.8121 51.1602 -22.8696 0.0000 -0.0000 -12.8082 -24.8033 -15.0991 6.8643 7.1250 -0.0000 -0.0000 2.6524 -46.5156 -0.0993
0.00 0.00 0.00 -107.5390 80.5889 -92.4246 0.0000 0.0000 0.0000 -12.6040 -16.4860 -28.4351 0.0470 1.3998 3.8495 9.8659 -7.1083 -59.5765 1.8267 -8.4953 -24.2290 0.0000 0.0000 0.0000 45.3914 10.5594 -24.3138 -5.7965 -14.2282 44.1593 -2.5644 6.8134 -28.9743 -0.6643 5.2127 -14.5162 6.9033 0.5070 13.9858 7.0326 3.3489 -5.7826 3.1298 1.4950 -14.5649 -0.2567 -5.2595 -12.8741 -2.9077 -3.3552 48.5936 -1.8162 -0.5705 22.4264 0.0000 0.0000 0.0000 -67.0015 33.3075 3.0081 17.1813 -27.0962 -4.1696 -0.0000 -0.0000 12.1133 36.5078 25.1852 17.4833 -7.1250 0.0000 -0.0000 8.2500 60.1208 3.0559 0.0000 0.0000 0.0000 49.4344 -21.5265 30.0800 -42.4025 49.4306 -20.2458 0.0000 -0.0000 -12.8084 -23.4836 -16.4714 7.0228 7.1250 -0.0000 -0.0000 4.1681 -47.8037 -0.2888
0.00 0.00 0.00 -91.4572 78.9512 -73.2545 0.0000 0.0000 0.0000 -13.5139 -12.3216 -24.5492 0.0629 1.6176 4.4500 6.1045 2.0035 -47.7095 2.9256 -10.5737 -30.8552 0.0000 0.0000 0.0000 46.6644 7.0438 -28.3495 -8.9352 -16.7658 55.8658 -2.0803 13.9116 -26.2603 -0.2723 3.3565 -9.2729 3.8559 0.3925 13.3020 6.5150 2.4757 -6.6648 4.5323 1.3330 -15.2435 1.4113 -4.0878 -13.6966 -2.2160 -2.6527 48.4749 -1.6719 -0.0016 22.6252 -0.0000 0.0000 0.0000 -72.4271 31.7040 9.1183 21.8463 -32.8029 -6.5024 -0.0000 -0.0000 8.5388 36.7203 24.9027 17.4372 -7.1250 0.0000 -0.0000 8.5503 59.8547 3.1137 -0.0000 0.0000 0.0000 46.4822 -27.9461 30.2329 -35.2100 44.9615 -14.9616 0.0000 -0.0000 -15.5003 -23.9051 -16.5645 7.2021 7.1250 -0.0000 -0.0000 3.7840 -47.9658 -0.2772
